<svg width="25" height="25" viewBox="0 0 25 25" fill="none" xmlns="http://www.w3.org/2000/svg">
<circle cx="12.5" cy="12.0039" r="12" fill="#1E5E2F"/>
<path d="M16.6179 8.10956L10.5517 14.1839L8.08492 11.7092L8.08494 11.7092L8.08222 11.7066C7.9829 11.6106 7.86565 11.5352 7.73717 11.4845C7.60868 11.4339 7.47149 11.4091 7.33341 11.4115C7.19533 11.4138 7.05908 11.4434 6.93243 11.4985C6.80577 11.5535 6.6912 11.633 6.59526 11.7323C6.49931 11.8316 6.42387 11.9489 6.37323 12.0773C6.3226 12.2058 6.29777 12.343 6.30016 12.4811C6.30255 12.6192 6.33211 12.7554 6.38716 12.8821C6.44196 13.0082 6.52096 13.1223 6.61967 13.218L9.81794 16.4162C9.81803 16.4163 9.81812 16.4164 9.81821 16.4165C9.91421 16.5132 10.0284 16.59 10.1542 16.6424C10.2801 16.6949 10.4152 16.7219 10.5516 16.7219C10.688 16.7219 10.8231 16.6949 10.949 16.6424C11.0748 16.59 11.189 16.5132 11.285 16.4165C11.2851 16.4164 11.2852 16.4163 11.2853 16.4162L18.082 9.61952C18.1854 9.52331 18.268 9.40691 18.3247 9.27749C18.382 9.14677 18.4115 9.00561 18.4115 8.8629C18.4115 8.7202 18.382 8.57904 18.3247 8.44832C18.2681 8.31896 18.1855 8.20261 18.0821 8.10642C17.9867 8.01105 17.8736 7.93527 17.749 7.88338C17.6231 7.83092 17.488 7.80391 17.3516 7.80391C17.2152 7.80391 17.0801 7.83092 16.9542 7.88338C16.8284 7.93581 16.7141 8.01263 16.6181 8.10941C16.618 8.10946 16.618 8.10951 16.6179 8.10956Z" fill="white" stroke="white" stroke-width="0.4"/>
</svg>
