<svg width="87" height="87" viewBox="0 0 87 87" fill="none" xmlns="http://www.w3.org/2000/svg">
<path d="M45.1937 0.486328C45.6139 0.609019 46.0514 0.567478 46.4792 0.599358C54.4336 1.19745 62.0593 4.02196 68.4849 8.75007C73.6317 12.5182 77.8743 17.3864 80.904 23.0005C82.1795 25.3523 83.2366 27.8161 84.0622 30.361C84.153 30.6392 84.068 30.6663 83.8256 30.6653C80.2109 30.6602 76.5956 30.6602 72.9797 30.6653C72.744 30.6653 72.6426 30.5813 72.548 30.3755C71.0035 27.0034 68.8973 23.9183 66.3195 21.2519C62.1048 16.8805 57.0952 13.8432 51.2309 12.2376C48.9924 11.6291 46.6918 11.2781 44.3738 11.1913C35.8698 10.8362 27.573 13.8748 21.3087 19.6386C15.0445 25.4024 11.3258 33.4194 10.9708 41.9258C10.6157 50.4322 13.6535 58.7313 19.4157 64.9973C25.1779 71.2633 33.1926 74.9831 41.6966 75.3382C45.7592 75.5284 49.8214 74.9546 53.6724 73.6466C57.4223 72.3864 60.8971 70.4213 63.9099 67.857C67.8243 64.5347 70.7497 60.4868 72.7295 55.7531C73.2518 54.4878 73.6998 53.1929 74.071 51.8753C74.1473 51.6116 74.0923 51.5633 73.8238 51.5633C65.6119 51.571 57.4001 51.5733 49.1883 51.57C48.8019 51.57 48.4224 51.5507 48.0419 51.5758C47.7734 51.5942 47.7347 51.4792 47.7521 51.2551C47.839 49.8553 47.9685 48.4593 48.1877 47.073C48.4848 45.1294 48.9369 43.2127 49.5398 41.3413C49.6364 41.0438 49.7687 40.9404 50.098 40.9404C61.9252 40.9513 73.7523 40.9542 85.5794 40.9491C86.1203 40.9491 86.0256 40.9375 86.0392 41.3906C86.1066 43.2465 86.0615 45.1047 85.904 46.9551C85.6744 49.4672 85.2341 51.9556 84.5876 54.3939C83.3656 59.0547 81.347 63.469 78.6209 67.4416C77.2424 69.4505 75.6971 71.3398 74.0015 73.0892C71.2035 75.9863 68.0242 78.4888 64.5512 80.5279C60.8456 82.705 56.8306 84.3057 52.6439 85.2752C50.7874 85.7045 48.9035 86.0047 47.0056 86.1736C45.2079 86.3404 43.4014 86.392 41.5971 86.3282C38.8577 86.232 36.1335 85.8762 33.4612 85.2655C28.3402 84.0964 23.4822 81.9819 19.1366 79.0305C16.6679 77.3572 14.3784 75.4336 12.3045 73.2901C9.13477 70.0342 6.50411 66.2937 4.51152 62.2093C2.77734 58.664 1.55315 54.8912 0.875297 51.003C0.524743 49.0337 0.313354 47.0422 0.242701 45.0433C0.242701 44.9834 0.252359 44.9187 0.201172 44.8704V41.8949C0.261051 41.8359 0.24077 41.7596 0.242701 41.6901C0.402251 37.2483 1.25908 32.8594 2.78178 28.6839C4.06501 25.1704 5.80555 21.8413 7.95844 18.7827C10.4134 15.2794 13.3753 12.1607 16.7472 9.52872C23.3756 4.33696 31.395 1.22935 39.7901 0.599358C40.2276 0.566512 40.6748 0.599358 41.1055 0.486328H45.1937Z" fill="#50C878"/>
<path d="M27.6162 25.4316C28.8755 26.0004 30.0371 26.7642 31.0583 27.6951C33.4728 29.8504 35.19 32.4965 36.5286 35.4121C38.1241 38.8774 39.0503 42.531 39.5013 46.3161C39.7012 47.9874 39.7833 49.6654 39.8789 51.3396C39.8886 51.5126 39.85 51.5734 39.6665 51.5725C38.437 51.5657 37.2085 51.5618 35.98 51.5725C35.7183 51.5725 35.7212 51.4256 35.7222 51.2594C35.728 50.39 35.6951 49.5263 35.6584 48.6598C35.4392 43.4179 34.57 38.2977 32.6036 33.3978C31.5094 30.6706 29.996 28.2091 27.8809 26.1407C27.6809 25.9446 27.5303 25.7389 27.6162 25.4316Z" fill="#50C878"/>
<path d="M23.7666 34.4805C23.986 34.6307 24.2147 34.7669 24.4514 34.8881C25.8942 35.5161 27.0648 36.5227 28.1967 37.5796C30.3649 39.5791 32.0531 42.0432 33.1348 44.7874C33.865 46.6442 34.3672 48.5551 34.4792 50.5616C34.4984 50.8292 34.5336 51.0953 34.5845 51.3586C34.6135 51.5219 34.5748 51.5741 34.4029 51.5731C33.1236 51.5673 31.8436 51.5673 30.5629 51.5731C30.3842 51.5731 30.3697 51.4968 30.362 51.3519C30.3166 50.3539 30.2654 49.356 30.1466 48.3619C29.8882 46.2271 29.3387 44.1377 28.5135 42.152C27.6674 40.1059 26.4023 38.3158 25.1525 36.514C24.7478 35.9344 24.3287 35.3548 23.9144 34.78C23.8409 34.6941 23.7901 34.5911 23.7666 34.4805V34.4805Z" fill="white"/>
<path d="M51.6241 34.5879C51.3517 34.9859 51.1122 35.3298 50.8795 35.6776C48.8339 38.7265 47.5533 42.0846 46.8685 45.6793C46.5159 47.5029 46.3239 49.3539 46.2948 51.211C46.2948 51.4603 46.2417 51.5849 45.9346 51.5791C44.7692 51.5565 43.6025 51.5565 42.4345 51.5791C42.1448 51.5791 42.0685 51.4825 42.0531 51.2245C42.0056 50.2019 42.1144 49.178 42.3756 48.1882C43.335 44.259 45.1121 40.5764 47.5909 37.3808C48.3095 36.4563 49.1188 35.6177 50.1464 35.0226C50.5928 34.7516 51.1021 34.6018 51.6241 34.5879V34.5879Z" fill="#50C878"/>
<path d="M40.8892 43.3142C40.5251 41.781 40.1707 40.302 39.8268 38.82C39.7747 38.6189 39.7848 38.4067 39.8558 38.2114C40.5888 36.317 41.5035 34.5249 42.8401 32.9763C43.9324 31.7108 45.2015 30.679 46.7999 30.0965C46.9235 30.051 47.0394 29.9912 47.1862 30.0443C47.4325 30.1341 47.4576 30.2172 47.2615 30.3911C44.9494 32.4382 43.4408 35.006 42.4142 37.8849C41.8143 39.6024 41.3338 41.3594 40.9761 43.1432C40.9521 43.2026 40.923 43.2598 40.8892 43.3142V43.3142Z" fill="white"/>
</svg>
