<svg width="62" height="63" viewBox="0 0 62 63" fill="none" xmlns="http://www.w3.org/2000/svg">
<path d="M45.1623 62.0722C45.9855 62.0769 46.8015 61.9177 47.5625 61.6037C48.3236 61.2897 49.0144 60.8272 49.5948 60.2434L57.9949 51.8433C58.5722 51.2625 58.8963 50.4769 58.8963 49.658C58.8963 48.8391 58.5722 48.0535 57.9949 47.4727L45.5962 35.074C45.0155 34.4967 44.2299 34.1727 43.411 34.1727C42.5921 34.1727 41.8065 34.4967 41.2257 35.074L36.2662 40.0025C32.8326 39.087 29.6525 37.4016 26.9672 35.074C24.646 32.3845 22.9613 29.2059 22.0388 25.775L26.9672 20.8156C27.5445 20.2348 27.8686 19.4492 27.8686 18.6303C27.8686 17.8114 27.5445 17.0258 26.9672 16.445L14.5686 4.04634C13.9878 3.46902 13.2022 3.14497 12.3833 3.14497C11.5644 3.14497 10.7788 3.46902 10.198 4.04634L1.82891 12.4774C1.24503 13.0578 0.7826 13.7487 0.468607 14.5097C0.154615 15.2708 -0.00465184 16.0867 0.000103426 16.91C0.281315 28.8198 5.0404 40.1863 13.3287 48.7436C21.886 57.0319 33.2525 61.7909 45.1623 62.0722V62.0722ZM12.3988 10.6486L20.4269 18.6768L16.4284 22.6754C16.0496 23.0301 15.766 23.4743 15.6036 23.9671C15.4411 24.4599 15.405 24.9856 15.4985 25.4961C16.657 30.6737 19.1099 35.4728 22.6277 39.4446C26.5964 42.9669 31.3968 45.4204 36.5762 46.5738C37.0789 46.6789 37.5998 46.6574 38.0922 46.5114C38.5845 46.3653 39.0329 46.0991 39.3969 45.7369L43.3955 41.6453L51.4236 49.6735L45.2243 55.8728C34.945 55.6081 25.1369 51.5058 17.7302 44.373C10.579 36.9633 6.4648 27.1423 6.19944 16.848L12.3988 10.6486ZM55.7942 27.9758H61.9935C62.0739 24.2903 61.4072 20.6267 60.0337 17.2057C58.6602 13.7847 56.6083 10.6773 54.0016 8.07062C51.395 5.46395 48.2875 3.41204 44.8666 2.03853C41.4456 0.66503 37.782 -0.00162019 34.0965 0.0787583V6.2781C36.9727 6.17861 39.8386 6.67179 42.5161 7.72699C45.1936 8.78219 47.6254 10.3769 49.6604 12.4119C51.6954 14.4468 53.2901 16.8787 54.3453 19.5562C55.4005 22.2337 55.8937 25.0996 55.7942 27.9758Z" fill="white"/>
<path d="M34.0967 18.6759C40.606 18.6759 43.3957 21.4656 43.3957 27.9749H49.595C49.595 17.994 44.0776 12.4766 34.0967 12.4766V18.6759Z" fill="white"/>
</svg>
